<?xml version="1.0"?>
<svg width="128" height="128" xmlns="http://www.w3.org/2000/svg" xmlns:svg="http://www.w3.org/2000/svg">
 <metadata id="metadata8">image/svg+xml</metadata>
 <g>
  <title>Layer 1</title>
  <path fill="#231f20" fill-rule="nonzero" d="m83.85018,56.42671c-0.36773,-14.92456 -11.69614,-26.47441 -26.32093,-26.85371c-4.27566,-0.11029 -4.28226,-6.89332 0,-6.78169c18.28493,0.47211 32.51036,14.98105 32.96508,33.63541c0.11071,4.37945 -6.53608,4.36466 -6.64415,0l0,-0.00001zm-12.38283,1.62212c-0.24647,-9.30095 -7.25572,-16.44849 -16.36985,-16.70539c-4.27962,-0.11702 -4.28753,-6.90005 0,-6.78169c12.77296,0.35643 22.67264,10.45096 23.01796,23.48708c0.11335,4.37676 -6.52948,4.366 -6.64811,0zm-6.66525,0.65638c-0.34664,2.0485 -1.24685,3.81722 -2.67822,5.29811c-1.0162,1.05854 -6.42405,6.55841 -7.02638,7.17713c-0.0369,0.02959 -0.0804,0.06456 -0.11335,0.10761c-0.04481,-0.04304 -0.07249,-0.06994 -0.10545,-0.09684c-2.30918,-2.36054 -4.62099,-4.72378 -6.93412,-7.08029c-0.20957,-0.21386 -0.41254,-0.43042 -0.59838,-0.65907c-1.29693,-1.58984 -2.05876,-3.40968 -2.27491,-5.47296c-0.10545,-0.98053 -0.06853,-1.95569 0.11071,-2.92008c0.44681,-2.34844 1.56581,-4.31085 3.34514,-5.85765c1.60799,-1.40019 3.4809,-2.17359 5.5726,-2.38072c0.94107,-0.08204 1.87554,-0.03094 2.79684,0.15871c2.38299,0.48421 4.35212,1.67592 5.86257,3.60067c1.85841,2.38206 2.53983,5.11115 2.04294,8.12539l0.00001,-0.00001zm32.85437,-38.84071c-13.93414,-14.16461 -38.91464,-16.95287 -55.62322,-6.32841c-12.36965,7.85638 -17.23579,20.07471 -18.6408,34.67915c-1.37733,27.4146 15.92963,55.34434 38.40588,71.2762c8.23633,5.83788 8.99551,-0.1224 7.15027,-2.06329c-3.86313,-4.07399 -12.65171,-15.02812 -13.8287,-18.95026c-2.5161,-8.41443 0.62474,-13.81746 9.19717,-13.67219c5.08362,0.09415 10.28585,-0.18965 15.27062,-1.18902c13.59936,-2.72101 23.81405,-10.07973 27.9276,-24.1596c4.41538,-15.06176 1.07682,-28.47717 -9.85881,-39.59258" id="path16"/>
  <path fill="#231f20" fill-rule="nonzero" d="m55.46134,54.748c-2.03867,0 -3.68933,1.65467 -3.68933,3.696c0,2.03733 1.65067,3.69067 3.68933,3.69067c2.03733,0 3.692,-1.65333 3.692,-3.69067c0,-2.04133 -1.65467,-3.696 -3.692,-3.696" id="path14"/>
 </g>
</svg>